{"scene":0,"asset":{"generator":"ImageToStl.com","version":"2.0"},"scenes":[{"name":"Scene","nodes":[0]}],"nodes":[{"name":"Node0","children":[1,2]},{"name":"Node1","mesh":0},{"name":"Node2","mesh":1}],"materials":[{"name":"A_C_02","pbrMetallicRoughness":{"baseColorFactor":[0.8,0.8,0.8,1.0],"metallicFactor":0.5,"roughnessFactor":0.75},"emissiveFactor":[0.0,0.0,0.0],"doubleSided":true}],"meshes":[{"name":"Mesh0","primitives":[{"indices":3,"material":0,"attributes":{"POSITION":0,"NORMAL":1,"TEXCOORD_0":2}}]},{"name":"Mesh0","primitives":[{"indices":7,"material":0,"attributes":{"POSITION":4,"NORMAL":5,"TEXCOORD_0":6}}]}],"accessors":[{"bufferView":0,"componentType":5126,"count":560,"type":"VEC3","min":[-1.3646721,-1.1065102,0.9952261],"max":[1.0767035,1.2824646,3.0615196]},{"bufferView":1,"componentType":5126,"count":560,"type":"VEC3"},{"bufferView":2,"componentType":5126,"count":560,"type":"VEC2"},{"bufferView":3,"componentType":5123,"count":8064,"type":"SCALAR"},{"bufferView":4,"componentType":5126,"count":3161,"type":"VEC3","min":[-1.4545664,-1.2919705,0.8083501],"max":[1.2061429,1.1472603,3.9411001]},{"bufferView":5,"componentType":5126,"count":3161,"type":"VEC3"},{"bufferView":6,"componentType":5126,"count":3161,"type":"VEC2"},{"bufferView":7,"componentType":5123,"count":47808,"type":"SCALAR"}],"bufferViews":[{"target":34962,"buffer":0,"byteLength":6720,"byteOffset":0},{"target":34962,"buffer":0,"byteLength":6720,"byteOffset":6720},{"target":34962,"buffer":0,"byteLength":4480,"byteOffset":13440},{"target":34963,"buffer":0,"byteLength":16128,"byteOffset":17920},{"target":34962,"buffer":0,"byteLength":37932,"byteOffset":34048},{"target":34962,"buffer":0,"byteLength":37932,"byteOffset":71980},{"target":34962,"buffer":0,"byteLength":25288,"byteOffset":109912},{"target":34963,"buffer":0,"byteLength":95616,"byteOffset":135200}],"buffers":[{"byteLength":230816,"uri":"data:application/octet-stream;base64,"}]}